<?xml version="1.0" encoding="utf-8"?>

<!DOCTYPE svg PUBLIC "-//W3C//DTD SVG 1.1//EN" "http://www.w3.org/Graphics/SVG/1.1/DTD/svg11.dtd">
<!-- Uploaded to: SVG Repo, www.svgrepo.com, Generator: SVG Repo Mixer Tools -->
<svg height="800px" width="800px" version="1.1" id="_x32_" xmlns="http://www.w3.org/2000/svg" xmlns:xlink="http://www.w3.org/1999/xlink" 
	 viewBox="0 0 512 512"  xml:space="preserve">
<style type="text/css">
	.st0{fill:#000000;}
</style>
<g>
	<path class="st0" d="M103.259,217.032c0-3.8-3.08-6.888-6.88-6.888c-3.8,0-6.889,3.088-6.889,6.888c0,3.8,3.088,6.881,6.889,6.881
		C100.179,223.913,103.259,220.832,103.259,217.032z"/>
	<path class="st0" d="M138.696,210.144c-3.809,0-6.889,3.088-6.889,6.888c0,3.8,3.08,6.881,6.889,6.881c3.8,0,6.88-3.08,6.88-6.881
		C145.575,213.232,142.495,210.144,138.696,210.144z"/>
	<circle class="st0" cx="106.156" cy="259.34" r="5.066"/>
	<path class="st0" d="M128.554,254.274c-2.797,0-5.066,2.268-5.066,5.066c0,2.797,2.269,5.066,5.066,5.066
		c2.798,0,5.075-2.269,5.075-5.066C133.629,256.542,131.352,254.274,128.554,254.274z"/>
	<path class="st0" d="M495.662,417.025c-12.565-7.855-67.685-53.314-67.685-53.314s-4.71-32.977-10.998-78.51
		c-5.777-41.888-19.5-63.794-21.66-67.038c6.552-14.743,10.088-30.279,10.078-46.116c0.01-19.09-5.075-38.417-15.199-56.924
		c-6.56-12.01-10.214-24.594-10.188-35.665c0.101-11.654,3.536-21.468,12.266-30.325c6.287-6.278,14.406-9.358,22.652-9.377
		c8.246,0.019,16.365,3.099,22.652,9.377c4.493,4.501,6.67,10.26,6.688,16.147c-0.008,5.886-2.195,11.645-6.688,16.146
		c-5.467,5.468-5.467,14.325,0,19.792c5.468,5.468,14.325,5.468,19.792,0c9.896-9.886,14.908-22.981,14.889-35.938
		c0.018-12.958-4.993-26.052-14.889-35.938c-11.691-11.691-27.127-17.595-42.444-17.578c-15.318-0.018-30.754,5.878-42.444,17.578
		c-14.233,14.105-20.576,32.367-20.466,50.116c0.027,17.04,5.313,33.797,13.604,49.06c8.11,14.889,11.773,29.386,11.782,43.529
		c-0.009,10.187-2.141,20.265-5.977,30.234c-13.742-6.369-33.459-12.147-59.484-11.363c-29.332,0.884-62.208,1.54-90.62,3.837
		c-0.319-19.619-16.275-35.438-35.966-35.438c-8.055,0-15.472,2.679-21.468,7.153c-12.21-11.199-28.484-18.042-46.354-18.042
		c-17.878,0-34.152,6.843-46.362,18.042c-5.996-4.474-13.413-7.153-21.468-7.153c-19.883,0-36.011,16.119-36.011,36.011
		c0,19.892,16.128,36.012,36.011,36.012l0.72-0.038c2.46,11.6,7.846,22.116,15.345,30.736l-0.036,1.494
		c0,28.613,23.19,51.803,51.802,51.803c6.816,0,13.313-1.348,19.273-3.746l-1.586,3.673c1.668,0.747,2.643,1.193,2.643,1.193
		s-28.257,68.304-32.968,75.367c-6.66,9.987-30.644,38.59-62.81,60.44c-10.716,7.298-26.298,5.504-31.4,7.855
		c-20.411,9.422-6.443,18.916-0.164,18.916c6.278,0,36.285,3.072,47.264-0.073c10.998-3.144,78.3-69.79,78.3-69.79l31.784-56.75
		l24.165,46.463l-9.422,73.006c0,0,16.484,25.916,28.257,23.555c11.782-2.35-2.351-21.194-2.351-30.607
		c0-9.422,14.133-77.726,14.133-77.726l-21.076-57.962c23.582-1.623,62.09-4.155,92.324-5.641l-21.887,33.878
		c-2.633,4.082-4.109,8.821-4.256,13.678l-2.916,96.196c0,0-15.7,12.566-21.978,14.133c-6.288,1.567,3.144,17.268,3.144,17.268
		l18.834,1.576l23.556-12.556l12.565-97.354l49.998-48.759c9.924,19.126,21.195,45.998,21.195,45.998
		c3.618,6.935,9.404,12.484,16.493,15.801l92.87,43.482c0,0-4.702,25.122-14.133,25.122c-9.413,0-10.98,12.566-9.413,17.268
		c1.568,4.72,10.989,4.72,20.411,4.72c9.421,0,9.421-1.577,10.989-6.279c1.568-4.72,14.134-25.122,20.411-40.832
		C516.074,431.149,508.219,424.871,495.662,417.025z M49.015,213.761c-9.878-0.365-17.778-8.466-17.778-18.434
		c0-10.196,8.274-18.47,18.47-18.47c3.754,0,7.235,1.13,10.151,3.052C53.506,189.751,49.598,201.314,49.015,213.761z
		 M117.537,300.399c-12.128,0-22.862-5.886-29.578-14.926h59.147C140.391,294.513,129.666,300.399,117.537,300.399z
		 M150.342,241.953c3.735,6.98,6.962,16.566,4.975,26.763l-2.397,5.558h-34.28h-2.205H81.298
		c-4.756-12.228-0.974-24.083,3.436-32.321c-9.377-4.392-15.882-13.886-15.882-24.922c0-15.207,12.328-27.536,27.528-27.536
		c8.501,0,16.11,3.863,21.158,9.923c5.048-6.06,12.648-9.923,21.158-9.923c15.199,0,27.528,12.329,27.528,27.536
		C166.224,228.067,159.717,237.561,150.342,241.953z M203.711,196.494c-6.516,0.784-12.784,1.64-18.379,2.715l-1.066,2.469
		c-1.804-7.836-4.82-15.208-9.048-21.769c2.906-1.922,6.396-3.052,10.142-3.052c10.205,0,18.47,8.274,18.47,18.47
		C203.83,195.728,203.738,196.102,203.711,196.494z"/>
</g>
</svg>