<?xml version="1.0" encoding="utf-8"?>
<!-- Uploaded to: SVG Repo, www.svgrepo.com, Generator: SVG Repo Mixer Tools -->
<svg width="800px" height="800px" viewBox="0 0 1024 1024" class="icon"  version="1.1" xmlns="http://www.w3.org/2000/svg"><path d="M938.666667 426.666667v-149.333334c0-46.933333-38.4-85.333333-85.333334-85.333333h-117.333333c0 17.066667-14.933333 32-32 32s-32-14.933333-32-32H170.666667c-46.933333 0-85.333333 38.4-85.333334 85.333333v149.333334c46.933333 0 85.333333 38.4 85.333334 85.333333s-38.4 85.333333-85.333334 85.333333v149.333334c0 46.933333 38.4 85.333333 85.333334 85.333333h501.333333c0-17.066667 14.933333-32 32-32s32 14.933333 32 32H853.333333c46.933333 0 85.333333-38.4 85.333334-85.333333v-149.333334c-46.933333 0-85.333333-38.4-85.333334-85.333333s38.4-85.333333 85.333334-85.333333zM704 757.333333c-17.066667 0-32-14.933333-32-32s14.933333-32 32-32 32 14.933333 32 32-14.933333 32-32 32z m0-106.666666c-17.066667 0-32-14.933333-32-32s14.933333-32 32-32 32 14.933333 32 32-14.933333 32-32 32z m0-106.666667c-17.066667 0-32-14.933333-32-32s14.933333-32 32-32 32 14.933333 32 32-14.933333 32-32 32z m0-106.666667c-17.066667 0-32-14.933333-32-32s14.933333-32 32-32 32 14.933333 32 32-14.933333 32-32 32z m0-106.666666c-17.066667 0-32-14.933333-32-32s14.933333-32 32-32 32 14.933333 32 32-14.933333 32-32 32z" fill="#FFA726" /></svg>