<?xml version="1.0" standalone="no"?>
<!DOCTYPE svg PUBLIC "-//W3C//DTD SVG 20010904//EN"
 "http://www.w3.org/TR/2001/REC-SVG-20010904/DTD/svg10.dtd">
<svg version="1.0" xmlns="http://www.w3.org/2000/svg"
 width="720.000000pt" height="720.000000pt" viewBox="0 0 720.000000 720.000000"
 preserveAspectRatio="xMidYMid meet">
<metadata>
Created by potrace 1.14, written by Peter Selinger 2001-2017
</metadata>
<g transform="translate(0.000000,720.000000) scale(0.100000,-0.100000)"
fill="#000000" stroke="none">
<path d="M3320 7189 c-721 -58 -1401 -328 -1980 -787 -123 -98 -445 -420 -541
-542 -631 -800 -901 -1774 -763 -2755 90 -647 344 -1234 763 -1765 97 -122
419 -444 541 -541 663 -523 1444 -799 2260 -799 816 0 1598 276 2260 799 122
97 444 419 541 541 523 662 799 1444 799 2260 0 819 -279 1606 -804 2265 -100
127 -412 438 -536 536 -737 582 -1633 860 -2540 788z m565 -229 c779 -73 1510
-415 2061 -965 432 -431 711 -903 874 -1478 139 -488 172 -1010 95 -1472 -37
-222 -42 -245 -95 -430 -159 -555 -465 -1048 -918 -1479 -142 -136 -370 -309
-577 -438 -410 -255 -923 -425 -1423 -469 -168 -15 -546 -6 -702 16 -814 114
-1536 485 -2062 1059 -143 157 -307 370 -396 515 -245 399 -411 884 -468 1361
-21 174 -24 550 -5 720 61 575 247 1094 562 1568 105 157 162 231 303 391 331
375 830 713 1331 901 298 112 574 175 880 203 92 8 438 6 540 -3z"/>
<path d="M3365 6774 c-260 -27 -478 -71 -695 -139 -326 -103 -684 -298 -1005
-546 -163 -127 -467 -432 -578 -581 -249 -335 -383 -607 -503 -1023 -19 -65
-34 -125 -34 -132 0 -36 30 -12 285 227 44 42 106 97 138 124 66 56 74 80 23
71 -63 -12 -118 38 -100 92 4 10 16 28 27 41 19 20 29 22 121 22 99 0 100 0
133 -31 30 -30 33 -31 55 -17 13 9 79 70 148 136 l125 121 -198 1 c-197 0
-198 0 -222 25 -33 33 -32 70 4 106 l29 29 716 0 715 0 83 84 c46 46 112 104
147 130 l63 46 -704 0 c-765 0 -738 -2 -752 55 -8 30 14 77 46 99 19 14 77 16
435 16 227 0 413 4 413 8 0 11 46 32 69 32 10 0 30 -9 44 -20 24 -19 40 -20
385 -20 l360 0 119 30 c66 17 157 34 203 38 l83 8 -7 -80 c-3 -45 -10 -94 -14
-111 -8 -29 -10 -30 -90 -37 -218 -20 -498 -160 -678 -339 -202 -200 -353
-531 -354 -776 0 -83 15 -73 -138 -98 l-94 -15 -19 22 c-11 13 -126 155 -256
316 -130 161 -237 291 -239 290 -1 -2 -33 -61 -70 -133 -37 -71 -85 -164 -108
-205 -23 -42 -59 -110 -81 -153 -22 -42 -43 -77 -46 -77 -3 0 -52 38 -108 85
-81 67 -106 83 -119 76 -17 -10 -297 -277 -545 -519 l-127 -125 0 -246 c0
-135 4 -307 10 -381 22 -288 98 -635 194 -888 30 -78 123 -290 132 -301 2 -2
12 3 22 12 14 13 204 97 219 97 1 0 3 -47 3 -106 l0 -105 -67 -31 c-38 -17
-70 -33 -72 -34 -8 -6 125 -203 198 -294 169 -210 458 -486 671 -640 105 -76
384 -244 448 -269 26 -11 108 -46 182 -79 74 -32 162 -69 195 -81 l59 -22 -46
41 c-62 54 -89 99 -90 152 -2 105 96 181 312 244 129 38 430 94 825 154 375
58 487 97 413 144 -113 70 -597 131 -1523 191 -268 17 -454 38 -533 59 -101
27 -171 84 -192 155 -20 70 37 163 123 204 113 54 423 77 1039 77 l459 0 -24
33 c-13 17 -53 79 -88 135 l-63 104 -151 -7 c-417 -17 -609 -27 -695 -35 -52
-5 -137 -12 -187 -16 l-93 -7 0 91 0 91 33 5 c17 3 124 10 237 16 113 6 224
15 248 20 23 6 78 10 121 10 43 0 106 3 140 6 60 7 61 7 44 27 -29 32 -133 98
-143 92 -6 -4 -9 -1 -8 5 2 7 -6 17 -16 23 -11 7 -28 19 -38 28 -26 23 -57 36
-103 45 -36 7 -37 8 -12 12 15 2 27 5 27 8 0 2 -20 31 -45 65 -62 85 -139 213
-175 294 -17 38 -34 64 -39 59 -4 -5 -18 -34 -30 -64 -13 -30 -34 -77 -47
-105 -12 -27 -36 -81 -52 -119 l-30 -69 -46 64 -47 64 46 3 c50 3 50 4 34 35
-9 18 -9 20 1 10 7 -6 18 -10 24 -9 6 2 7 1 3 -2 -9 -5 11 -32 24 -32 5 0 5 7
2 17 -5 12 -3 14 8 8 34 -20 -7 14 -68 55 -64 44 -67 48 -118 159 -29 62 -58
118 -64 124 -7 7 -18 -8 -37 -51 l-26 -61 -87 60 c-136 94 -130 85 -206 291
-39 103 -72 188 -75 188 -3 0 -22 -45 -43 -100 -21 -55 -41 -100 -46 -100 -4
0 -16 7 -26 15 -11 8 -46 34 -78 57 -63 47 -69 57 -198 358 -27 63 -67 151
-88 195 -38 76 -40 94 -16 123 2 2 135 -84 296 -191 301 -198 474 -310 894
-577 132 -83 255 -163 273 -177 18 -14 36 -23 39 -20 3 3 -35 72 -85 154 -127
210 -215 382 -257 503 -38 112 -98 341 -90 348 4 4 143 -20 196 -34 12 -3 18
-21 22 -62 9 -86 63 -255 116 -367 29 -61 152 -256 312 -497 223 -336 563
-857 732 -1122 l44 -69 48 74 c368 571 558 862 752 1152 129 192 253 387 277
435 64 127 118 308 128 427 3 29 3 29 108 46 58 10 106 16 108 15 6 -7 -30
-154 -65 -266 -62 -195 -178 -405 -715 -1290 -69 -113 -133 -218 -142 -232
l-17 -27 208 -4 c114 -2 269 -9 343 -16 74 -7 203 -18 285 -24 l150 -12 0 -90
c0 -74 -3 -90 -15 -88 -165 22 -480 41 -810 49 l-296 7 -74 -118 c-41 -66 -79
-125 -83 -132 -7 -12 69 -13 470 -11 263 2 487 7 498 11 16 7 17 7 5 -2 -11
-8 27 -11 140 -11 266 1 356 22 395 93 l20 36 -21 28 c-11 15 -34 32 -51 37
-27 8 -32 15 -37 54 -3 25 -6 64 -6 88 0 52 -10 50 183 32 l127 -12 0 -164 c0
-130 -3 -171 -16 -198 -34 -71 -102 -108 -279 -151 -63 -15 -211 -17 -1580
-22 -1649 -7 -1590 -5 -1590 -61 0 -36 40 -46 255 -59 420 -27 1032 -78 1270
-107 270 -32 649 -113 767 -164 70 -30 123 -88 123 -136 0 -38 -19 -83 -44
-103 -9 -7 -13 -18 -9 -24 3 -5 2 -7 -3 -4 -6 3 -16 2 -24 -4 -12 -7 -9 -9 10
-10 38 -1 -88 -35 -240 -65 -534 -103 -729 -170 -838 -288 -131 -142 -39 -277
239 -347 73 -19 102 -21 253 -16 188 5 321 25 555 83 555 137 1101 461 1529
908 100 105 310 360 333 403 8 16 29 50 48 76 18 26 32 49 30 51 -2 2 -32 18
-66 35 l-63 31 0 105 0 105 33 -14 c17 -7 70 -30 115 -50 46 -20 86 -36 88
-36 12 0 126 255 162 360 37 107 112 389 126 471 5 26 1 42 -12 60 -29 38 -80
125 -96 164 l-15 36 40 -34 c38 -33 91 -53 110 -41 5 3 9 22 9 42 0 27 -8 44
-31 68 -18 18 -48 57 -68 86 -21 29 -43 53 -51 53 -13 0 -106 -148 -131 -208
-16 -39 -2 -52 45 -39 42 12 46 23 -45 -134 -33 -55 -59 -106 -59 -113 0 -9
11 -11 40 -6 22 4 40 4 40 1 0 -3 -9 -20 -19 -37 l-19 -31 -48 69 c-77 110
-110 157 -117 169 -5 8 6 9 39 2 25 -6 48 -7 51 -4 3 3 -5 29 -17 58 -13 29
-56 149 -97 267 -40 117 -76 218 -79 223 -9 14 -20 -7 -45 -82 -12 -36 -52
-149 -90 -252 -38 -104 -69 -192 -69 -197 0 -6 20 -11 45 -13 l46 -3 -30 -40
c-35 -49 -141 -230 -141 -243 0 -11 80 -5 123 8 15 5 27 5 27 1 0 -5 -35 -45
-77 -90 l-78 -83 -68 89 -68 88 68 5 c49 4 67 9 65 18 -1 7 -38 67 -82 132
-44 66 -80 121 -80 122 0 2 23 1 50 0 l50 -4 -21 54 c-12 29 -52 136 -89 238
l-68 185 286 142 c158 78 294 143 302 143 12 0 10 4 -4 15 -11 8 -14 15 -8 15
7 0 12 4 12 10 0 5 -6 7 -13 4 -15 -5 -82 180 -71 198 4 6 3 8 -3 5 -12 -8
-26 33 -27 75 0 15 -4 24 -10 21 -5 -4 -7 1 -3 11 4 9 3 15 -1 12 -11 -7 -54
83 -46 96 8 13 -32 -8 -72 -37 -21 -17 -31 -19 -31 -10 0 8 5 13 11 12 6 -1
10 4 8 11 -1 8 1 11 6 8 4 -3 21 4 38 15 l29 19 -40 0 c-29 0 -45 -6 -55 -20
-8 -11 -23 -20 -33 -20 -13 0 -18 -6 -15 -22 2 -15 9 -22 22 -21 24 2 22 0
-141 -111 -151 -102 -173 -115 -173 -97 0 6 4 10 10 8 15 -3 120 67 120 80 0
7 3 12 8 12 4 -1 14 -1 22 0 13 1 13 2 0 11 -13 9 -13 10 0 11 8 1 18 1 23 0
4 0 7 4 7 9 0 6 6 10 14 10 8 0 17 7 20 16 4 9 9 14 13 11 3 -3 19 1 36 10
l31 16 -34 16 c-19 9 -36 13 -38 9 -2 -4 -57 -8 -123 -8 l-119 0 0 34 c0 33
-20 62 -33 49 -22 -21 24 79 48 107 13 15 15 19 15 40 0 6 4 10 9 10 5 0 7 -9
4 -20 -3 -11 0 -20 6 -20 6 0 11 9 11 20 0 17 7 20 40 20 22 0 40 -5 40 -11 0
-6 12 -9 28 -8 15 2 32 0 39 -4 7 -5 9 0 5 15 -3 14 -2 19 6 14 7 -4 12 -5 12
-1 0 14 -63 115 -72 115 -5 0 -7 3 -5 8 3 4 -39 97 -93 206 l-97 199 -164
-198 c-198 -239 -360 -429 -368 -432 -3 -2 -51 5 -106 15 l-100 18 -7 45 c-4
24 -14 90 -22 146 -37 248 -162 489 -345 666 -185 178 -404 290 -651 332 -52
9 -98 20 -102 23 -10 11 -42 201 -35 209 10 10 189 -22 290 -51 85 -25 94 -26
402 -26 l315 0 0 31 c0 59 24 113 70 161 l46 48 -1570 2 -1571 3 95 83 94 82
1776 0 1776 0 89 -75 c50 -41 93 -75 98 -75 4 0 7 -4 7 -10 0 -6 -102 -10
-287 -10 l-287 0 41 -30 c49 -36 93 -117 93 -172 l0 -38 308 0 c289 0 309 -1
340 -20 58 -35 64 -91 15 -130 -25 -19 -39 -20 -366 -20 l-340 0 -54 -26 c-36
-18 -76 -28 -123 -32 -64 -4 -76 -2 -134 27 l-63 31 -183 0 -183 0 70 -49 c38
-27 103 -85 145 -130 l75 -81 725 0 725 0 27 -25 c33 -30 36 -85 6 -115 -19
-19 -33 -20 -221 -20 l-200 0 128 -135 c70 -74 133 -135 140 -135 6 0 24 14
40 30 28 30 28 30 138 30 114 -1 132 -6 153 -47 18 -34 14 -52 -17 -84 -25
-24 -37 -29 -80 -29 -28 0 -51 -3 -50 -7 0 -5 32 -35 71 -68 38 -33 145 -126
236 -207 92 -82 173 -148 180 -148 19 0 12 32 -37 197 -59 194 -105 311 -196
498 -369 755 -1095 1367 -1915 1614 -153 47 -380 95 -520 111 -98 11 -544 21
-615 14z m284 -139 c29 -15 41 -39 41 -87 l0 -28 199 0 c110 0 211 -4 225 -10
57 -21 70 -86 26 -130 -19 -19 -34 -20 -235 -20 -210 0 -215 0 -215 -20 0 -31
-47 -70 -83 -70 -37 0 -77 35 -77 67 l0 23 -230 0 -231 0 -24 25 c-33 33 -32
70 4 106 l29 29 226 0 226 0 0 36 c0 26 8 43 29 65 33 33 50 35 90 14z m-14
-1090 c9 -60 23 -140 31 -176 l15 -67 57 -7 c148 -18 324 -90 447 -182 204
-152 321 -359 355 -626 5 -44 9 -82 7 -83 -2 -2 -95 12 -207 31 -113 18 -247
39 -298 46 -75 10 -92 15 -87 27 3 8 45 78 94 156 113 181 181 296 174 296 -3
0 -55 -33 -116 -73 -62 -40 -158 -101 -214 -136 -87 -54 -102 -67 -98 -85 3
-12 12 -54 19 -94 l14 -72 -31 -22 -32 -23 35 -6 c275 -50 690 -114 858 -133
117 -13 215 -26 218 -28 2 -3 -19 -8 -48 -12 -29 -4 -103 -16 -165 -27 -121
-23 -123 -24 -123 -95 0 -46 -37 -180 -73 -264 -86 -200 -248 -365 -450 -460
-86 -40 -226 -80 -284 -80 -30 0 -32 2 -28 28 10 56 57 311 76 408 10 56 19
111 19 123 0 12 4 21 10 21 9 0 148 -82 315 -186 44 -28 87 -54 95 -59 11 -7
9 -1 -5 20 -10 17 -73 116 -138 220 -66 105 -121 191 -122 193 -2 2 -38 -2
-80 -9 l-77 -13 -37 39 c-20 22 -60 67 -89 100 l-52 60 2 -625 c1 -403 -2
-643 -8 -675 -13 -60 -11 -66 -56 169 l-33 170 -90 17 c-299 57 -528 222 -657
475 -25 49 -55 118 -66 154 -23 69 -54 232 -46 239 9 9 584 -90 584 -101 0 -7
-122 -209 -208 -342 -28 -44 -50 -82 -48 -84 2 -2 28 12 58 31 29 19 118 74
198 122 80 48 151 93 158 100 11 10 11 24 3 71 -11 58 -11 59 18 81 15 12 61
61 100 108 l72 85 -1 620 c0 529 4 760 15 748 2 -2 10 -52 20 -113z m-129
-277 c-10 -49 -51 -297 -72 -435 -10 -68 -22 -123 -26 -123 -9 0 -259 147
-350 206 -38 24 -68 41 -68 38 0 -7 148 -241 233 -367 32 -49 57 -91 54 -93
-5 -5 -516 -90 -577 -96 l-34 -3 3 50 c18 322 221 623 517 766 82 40 243 88
298 89 27 0 28 -2 22 -32z m2219 -648 c-3 -5 0 -10 7 -10 9 0 9 -3 -2 -10 -8
-5 -19 -10 -25 -10 -5 0 -3 5 5 10 8 5 11 10 7 10 -9 0 1 20 9 20 3 0 2 -4 -1
-10z m-25 -79 c0 -5 -7 -11 -15 -15 -15 -5 -20 5 -8 17 9 10 23 9 23 -2z
m-140 -302 c0 -6 -4 -7 -10 -4 -5 3 -10 11 -10 16 0 6 5 7 10 4 6 -3 10 -11
10 -16z m-11 -32 c0 -9 -2 -8 -6 1 -2 6 -10 9 -15 6 -7 -4 -8 -2 -4 5 9 13 26
5 25 -12z m-38 -35 c-14 -27 -14 -35 2 -26 6 4 8 3 4 -1 -4 -5 -14 -10 -22
-11 -11 -2 -11 4 2 32 9 18 18 32 21 30 2 -2 -1 -13 -7 -24z m69 -206 c0 -2
-8 -10 -17 -17 -16 -13 -17 -12 -4 4 13 16 21 21 21 13z m-55 -42 c-38 -29
-55 -36 -49 -19 4 9 9 14 12 11 2 -3 14 1 26 9 27 20 37 19 11 -1z m-125 -27
c0 -7 -11 -24 -25 -39 -33 -36 -32 -45 3 -22 17 11 23 12 15 3 -6 -8 -26 -22
-43 -33 l-32 -18 17 33 c10 19 25 42 34 53 9 10 15 20 14 22 -7 11 -2 24 7 19
6 -3 10 -12 10 -18z m60 -11 c0 -2 -11 -11 -25 -20 -23 -15 -25 -15 -25 -1 0
9 4 14 9 10 5 -3 12 -1 16 5 6 9 25 14 25 6z m76 -463 c-13 -38 -49 -135 -80
-216 -31 -81 -56 -150 -56 -153 0 -3 23 -4 50 -2 28 1 50 0 50 -3 0 -4 -8 -17
-19 -30 -51 -67 -161 -234 -161 -247 0 -12 12 -13 68 -8 37 4 76 10 87 13 12
3 -7 -24 -49 -71 -38 -42 -72 -76 -75 -76 -6 0 -81 158 -108 227 -3 7 9 11 36
10 25 -1 41 3 41 9 0 19 -137 338 -146 341 -5 1 -29 -41 -54 -93 -24 -53 -63
-131 -87 -172 -24 -41 -43 -79 -43 -84 0 -4 20 -5 45 -1 25 3 45 3 45 -1 0 -3
-29 -48 -65 -100 -36 -52 -65 -96 -65 -99 0 -2 20 -8 44 -11 l44 -7 -25 -45
-26 -45 -38 71 c-22 39 -39 73 -39 76 0 2 14 4 31 4 27 0 30 3 23 23 -3 12
-13 34 -20 48 -7 15 -27 62 -44 105 -49 123 -82 194 -91 194 -4 0 -33 -49 -65
-110 -31 -60 -63 -110 -70 -110 -8 0 -11 -6 -7 -17 5 -12 3 -14 -7 -8 -10 6
-12 4 -7 -8 3 -9 2 -19 -2 -21 -10 -6 -7 72 3 81 3 4 6 1 6 -5 0 -6 7 -9 15
-6 8 4 13 10 10 14 -3 5 -1 11 5 15 5 3 10 11 10 16 0 6 -4 7 -10 4 -6 -4 -10
5 -10 19 0 14 -5 26 -11 26 -6 0 -9 17 -7 43 2 31 7 42 20 42 9 0 20 4 25 9 5
5 2 6 -7 1 -10 -5 -12 -5 -5 3 19 19 829 418 857 421 4 1 -4 -29 -16 -66z
m-4565 4 c-10 -9 -11 -8 -5 6 3 10 9 15 12 12 3 -3 0 -11 -7 -18z m-24 -79
c-3 -8 -6 -5 -6 6 -1 11 2 17 5 13 3 -3 4 -12 1 -19z m-189 -163 c-3 -3 -9 2
-12 12 -6 14 -5 15 5 6 7 -7 10 -15 7 -18z m-172 -77 c-14 -24 -26 -40 -26
-36 0 13 42 89 47 84 3 -2 -7 -24 -21 -48z m1204 -57 c49 -18 60 -27 60 -54 0
-10 7 -25 15 -34 14 -14 14 -17 -1 -34 -10 -11 -14 -22 -9 -27 4 -4 10 -1 12
6 3 6 12 12 21 12 10 0 13 -3 7 -8 -13 -9 -12 -32 3 -59 27 -49 8 -31 -54 51
-63 84 -65 88 -48 107 9 10 14 19 9 19 -4 0 -13 -7 -19 -16 -10 -13 -16 -9
-46 27 -25 31 -29 40 -14 34 10 -4 39 -15 64 -24z m-626 -7 c3 -8 2 -12 -4 -9
-6 3 -10 10 -10 16 0 14 7 11 14 -7z m-630 -19 c-9 -14 -18 -25 -20 -25 -7 0
10 35 20 42 17 12 17 9 0 -17z m1346 15 c0 -5 -4 -10 -10 -10 -5 0 -10 5 -10
10 0 6 5 10 10 10 6 0 10 -4 10 -10z m-690 -30 c0 -5 -2 -10 -4 -10 -3 0 -8 5
-11 10 -3 6 -1 10 4 10 6 0 11 -4 11 -10z m55 -90 c3 -10 14 -21 23 -23 15 -4
15 -5 0 -6 -9 0 -26 15 -38 36 -13 23 -16 32 -6 24 8 -7 18 -21 21 -31z m159
5 c-9 -14 -19 -23 -22 -20 -5 4 26 45 35 45 2 0 -4 -11 -13 -25z m-559 -5 c-3
-5 -14 -10 -23 -9 -14 0 -13 2 3 9 27 11 27 11 20 0z m-57 -84 c-11 -19 -11
-19 -29 3 -27 33 -24 41 10 28 26 -9 28 -14 19 -31z m546 -4 c9 12 16 17 16
11 0 -6 -8 -20 -17 -32 l-18 -21 -18 32 c-17 33 -17 33 2 10 l20 -22 15 22z
m-414 -60 c0 -5 -9 -18 -19 -29 -11 -12 -28 -36 -38 -55 l-18 -34 -18 35 c-17
35 -17 35 1 13 10 -13 21 -20 25 -16 11 11 8 46 -3 39 -16 -10 -12 4 8 24 24
25 62 39 62 23z m-80 -6 c0 -2 -11 -6 -25 -8 -14 -3 -25 -1 -25 3 0 5 11 9 25
9 14 0 25 -2 25 -4z m987 -2 c-3 -3 -12 -4 -19 -1 -8 3 -5 6 6 6 11 1 17 -2
13 -5z m73 -4 l29 0 -27 -59 c-21 -45 -30 -56 -40 -48 -28 22 -34 47 -19 77 8
16 12 31 8 33 -3 2 0 2 7 0 8 -1 27 -3 42 -3z m2730 4 c0 -8 -19 -13 -24 -6
-3 5 1 9 9 9 8 0 15 -2 15 -3z m-3803 -30 c-3 -3 -12 -4 -19 -1 -8 3 -5 6 6 6
11 1 17 -2 13 -5z m3783 3 c0 -2 -11 -18 -25 -37 -13 -18 -22 -38 -18 -44 3
-6 0 -5 -7 1 -11 10 -11 16 3 31 9 10 17 23 17 29 0 6 6 14 13 16 17 7 17 7
17 4z m-2300 -34 c0 -3 -13 -27 -29 -52 -16 -25 -32 -56 -36 -69 -8 -29 -22
-19 -54 38 l-23 42 28 -3 c64 -5 86 0 80 18 -4 9 -1 20 6 25 16 9 28 10 28 1z
m2210 -33 c0 -12 7 -20 16 -20 48 0 -57 -63 -124 -75 -23 -4 -42 -11 -42 -16
0 -5 11 -4 26 1 40 15 40 12 0 -15 -20 -14 -42 -25 -49 -24 -9 0 -9 2 1 6 7 2
12 22 12 44 0 39 0 39 40 39 33 0 40 3 40 20 0 13 7 20 18 20 10 0 24 9 32 20
8 11 18 20 22 20 4 0 8 -9 8 -20z m1851 -3 c-10 -9 -11 -8 -5 6 3 10 9 15 12
12 3 -3 0 -11 -7 -18z m-3791 -16 c-26 -8 -27 -12 -14 -46 5 -15 2 -13 -14 7
-31 37 -27 48 16 47 32 -1 34 -2 12 -8z m2120 -5 c0 -3 -4 -8 -10 -11 -5 -3
-10 -1 -10 4 0 6 5 11 10 11 6 0 10 -2 10 -4z m-2103 -98 c-3 -8 -6 -5 -6 6
-1 11 2 17 5 13 3 -3 4 -12 1 -19z m1647 -103 c-10 -8 -23 -15 -28 -15 -6 0
-1 7 10 15 10 8 23 15 28 15 6 0 1 -7 -10 -15z m-2254 -173 l0 -89 -122 -12
c-68 -7 -135 -15 -150 -18 l-28 -5 0 95 0 95 88 7 c48 3 92 8 97 10 6 2 34 4
63 4 l52 1 0 -88z m-460 -52 l0 -99 -37 -7 c-88 -15 -182 -35 -246 -53 l-68
-18 3 111 3 111 145 26 c80 15 157 27 173 28 l27 1 0 -100z m4340 67 l155 -32
3 -109 3 -109 -23 7 c-13 4 -81 20 -153 36 -71 17 -140 32 -152 35 -22 5 -23
10 -23 105 0 89 2 100 18 100 9 -1 87 -15 172 -33z m67 -483 c-3 -3 -12 -4
-19 -1 -8 3 -5 6 6 6 11 1 17 -2 13 -5z m-152 -44 c-27 -12 -43 -12 -25 0 8 5
22 9 30 9 10 0 8 -3 -5 -9z m-68 -26 c-3 -3 -12 -4 -19 -1 -8 3 -5 6 6 6 11 1
17 -2 13 -5z m-342 -117 c-16 -12 -54 -41 -82 -64 -36 -30 -62 -43 -83 -43
-66 0 -40 71 32 91 37 10 143 35 158 38 3 0 -8 -10 -25 -22z m-3864 -118 c24
-13 22 -52 -3 -57 -13 -3 -71 38 -137 94 -8 7 122 -27 140 -37z"/>
<path d="M1747 3049 c7 -7 15 -10 18 -7 3 3 -2 9 -12 12 -14 6 -15 5 -6 -5z"/>
<path d="M1783 5128 c1 -4 99 -124 217 -267 218 -266 227 -273 229 -205 1 12
11 58 24 102 l23 79 -90 7 c-97 7 -132 21 -142 60 -7 28 18 81 41 90 9 3 72 6
139 6 l123 0 38 63 c21 34 40 65 41 68 2 3 -143 6 -321 5 -179 -1 -324 -4
-322 -8z"/>
<path d="M5113 5130 l-321 -5 36 -62 37 -63 126 0 c112 0 129 -2 153 -21 19
-15 26 -30 26 -54 0 -24 -7 -39 -26 -54 -23 -18 -41 -21 -121 -21 -55 0 -92
-4 -88 -9 8 -14 55 -203 55 -226 1 -25 29 6 258 280 192 230 196 235 191 238
-2 1 -149 0 -326 -3z"/>
<path d="M6012 4518 c-29 -22 -49 -44 -46 -47 4 -3 9 0 11 7 3 6 9 12 15 12 6
0 3 -11 -5 -24 l-16 -23 45 5 c40 4 44 3 44 -17 0 -17 -6 -21 -30 -21 -23 0
-30 -4 -30 -20 0 -13 7 -20 20 -20 13 0 20 -7 20 -20 0 -14 7 -20 21 -20 19 0
21 -4 16 -35 l-6 -35 29 15 c16 8 45 15 65 15 28 0 35 -4 35 -20 0 -13 7 -20
20 -20 18 0 20 -7 20 -60 l0 -60 40 0 c33 0 40 -3 40 -20 0 -13 7 -20 20 -20
18 0 20 -7 20 -80 0 -73 2 -80 20 -80 27 0 26 -31 -3 -58 -18 -17 -36 -22 -80
-22 -31 0 -58 -3 -61 -8 -9 -15 20 -39 69 -56 28 -10 59 -22 70 -27 11 -5 58
-22 105 -38 47 -16 130 -46 184 -65 l99 -36 -6 98 c-4 53 -7 121 -7 149 0 47
-4 58 -36 93 -20 22 -41 37 -47 33 -5 -3 -7 -2 -4 4 8 13 -67 86 -77 76 -4 -5
-6 -3 -4 3 5 18 -165 174 -175 161 -6 -8 -7 -6 -4 4 6 18 -114 144 -126 133
-4 -4 -7 -1 -7 7 0 17 -39 44 -60 41 -11 -1 -11 0 -2 4 10 5 8 12 -9 30 -12
13 -26 21 -32 17 -6 -3 -7 -1 -4 4 8 12 -66 83 -86 83 -6 0 -36 -19 -65 -42z
m88 17 c0 -2 -9 -3 -19 -2 -11 0 -18 5 -15 9 4 6 34 0 34 -7z m-66 -36 c-3 -5
-10 -7 -15 -3 -5 3 -7 10 -3 15 3 5 10 7 15 3 5 -3 7 -10 3 -15z m294 -190
c-3 -8 -7 -3 -11 10 -4 17 -3 21 5 13 5 -5 8 -16 6 -23z m47 -29 c3 -5 1 -10
-4 -10 -6 0 -11 5 -11 10 0 6 2 10 4 10 3 0 8 -4 11 -10z m75 -75 c7 -9 8 -15
2 -15 -5 0 -12 7 -16 15 -3 8 -4 15 -2 15 2 0 9 -7 16 -15z m48 -48 c21 -22
21 -23 2 -24 -11 -1 -18 3 -14 8 3 5 0 16 -6 24 -20 24 -6 17 18 -8z m39 -52
c0 -8 -4 -12 -9 -9 -4 3 -8 9 -8 15 0 5 4 9 8 9 5 0 9 -7 9 -15z"/>
<path d="M5840 4431 c0 -6 4 -13 10 -16 6 -3 7 1 4 9 -7 18 -14 21 -14 7z"/>
<path d="M5880 4415 c-7 -9 -11 -17 -9 -20 3 -2 10 5 17 15 14 24 10 26 -8 5z"/>
<path d="M5720 4380 c0 -23 4 -30 20 -30 23 0 25 17 6 43 -19 25 -26 21 -26
-13z"/>
<path d="M5840 4380 c0 -5 5 -10 11 -10 5 0 7 5 4 10 -3 6 -8 10 -11 10 -2 0
-4 -4 -4 -10z"/>
<path d="M5585 4331 c-3 -5 -1 -12 5 -16 5 -3 10 1 10 9 0 18 -6 21 -15 7z"/>
<path d="M6151 4124 c0 -11 3 -14 6 -6 3 7 2 16 -1 19 -3 4 -6 -2 -5 -13z"/>
<path d="M6185 3950 c3 -5 8 -10 11 -10 2 0 4 5 4 10 0 6 -5 10 -11 10 -5 0
-7 -4 -4 -10z"/>
</g>
</svg>
